<?xml version="1.0" encoding="utf-8"?>
<!-- Generator: Adobe Illustrator 22.0.0, SVG Export Plug-In . SVG Version: 6.00 Build 0)  -->
<svg version="1.1" id="Layer_1" xmlns="http://www.w3.org/2000/svg" xmlns:xlink="http://www.w3.org/1999/xlink" x="0px" y="0px"
	 viewBox="0 0 207.3 207.3" enable-background="new 0 0 207.3 207.3" xml:space="preserve">
<g>
	<path d="M173.1,178.9l-10.8-25.5c-0.4-0.9-0.3-1.8,0.3-2.6l6.2-9c0.5-0.8,1.4-1.2,2.3-1.2l27.7,1c1.3,0,2.5-0.9,2.7-2.1l6.1-28.6
		c0.3-1.3-0.4-2.6-1.6-3.1l-25.7-10.4c-0.9-0.3-1.5-1.1-1.6-2l-2-10.7c-0.2-0.9,0.1-1.8,0.8-2.5l20.3-18.9c1-0.9,1.1-2.4,0.4-3.5
		l-15.9-24.5c-0.7-1.1-2.1-1.5-3.3-1l-25.5,10.8c-0.9,0.4-1.8,0.3-2.6-0.3l-9-6.2c-0.8-0.5-1.2-1.4-1.2-2.3l1-27.7
		c0-1.3-0.9-2.5-2.1-2.7l-28.6-6.1c-1.3-0.3-2.6,0.4-3.1,1.6L97.4,27.1c-0.3,0.9-1.1,1.5-2,1.6l-10.7,2c-0.9,0.2-1.8-0.1-2.5-0.8
		L63.3,9.6c-0.9-1-2.4-1.1-3.5-0.4L35.3,25.1c-1.1,0.7-1.5,2.1-1,3.3l10.8,25.5c0.4,0.9,0.3,1.8-0.3,2.6l-6.2,9
		c-0.5,0.8-1.4,1.2-2.3,1.2l-27.7-1c-1.3,0-2.5,0.9-2.7,2.1l-6.1,28.6c-0.3,1.3,0.4,2.6,1.6,3.1l25.7,10.4c0.9,0.3,1.5,1.1,1.6,2
		l2,10.7c0.2,0.9-0.1,1.8-0.8,2.5L9.6,144.1c-1,0.9-1.1,2.4-0.4,3.5L25.1,172c0.7,1.1,2.1,1.5,3.3,1l25.5-10.8
		c0.9-0.4,1.8-0.3,2.6,0.3l9,6.2c0.8,0.5,1.2,1.4,1.2,2.3l-1,27.7c0,1.3,0.9,2.5,2.1,2.7l28.6,6.1c1.3,0.3,2.6-0.4,3.1-1.6
		l10.4-25.7c0.3-0.9,1.1-1.5,2-1.6l10.7-2c0.9-0.2,1.8,0.1,2.5,0.8l18.9,20.3c0.9,1,2.4,1.1,3.5,0.4l24.5-15.9
		C173.1,181.5,173.6,180.1,173.1,178.9z M131.8,147c-23.9,15.5-55.9,8.7-71.4-15.2c-15.5-23.9-8.7-55.9,15.2-71.4
		c23.9-15.5,55.9-8.7,71.4,15.2C162.5,99.5,155.7,131.5,131.8,147z"/>
</g>
</svg>
